<svg width="22" height="24" viewBox="0 0 22 24" fill="none" xmlns="http://www.w3.org/2000/svg">
<path d="M12.2023 1.2085C11.8773 0.901309 11.4471 0.730148 11 0.730148C10.5529 0.730148 10.1227 0.901309 9.79775 1.2085L1.32075 9.22C1.06119 9.46562 0.854519 9.76164 0.713389 10.0899C0.572259 10.4182 0.499647 10.7719 0.500001 11.1292V20.8767C0.500465 21.5726 0.777232 22.2399 1.26946 22.7318C1.7617 23.2237 2.42911 23.5 3.125 23.5H5.75C6.44619 23.5 7.11387 23.2234 7.60616 22.7312C8.09844 22.2389 8.375 21.5712 8.375 20.875V16.5C8.375 16.2679 8.46719 16.0454 8.63128 15.8813C8.79538 15.7172 9.01794 15.625 9.25 15.625H12.75C12.9821 15.625 13.2046 15.7172 13.3687 15.8813C13.5328 16.0454 13.625 16.2679 13.625 16.5V20.875C13.625 21.5712 13.9016 22.2389 14.3938 22.7312C14.8861 23.2234 15.5538 23.5 16.25 23.5H18.875C19.5712 23.5 20.2389 23.2234 20.7312 22.7312C21.2234 22.2389 21.5 21.5712 21.5 20.875V11.1275C21.4999 10.7703 21.4269 10.4169 21.2855 10.0889C21.144 9.76094 20.9372 9.46526 20.6775 9.22L12.2023 1.205V1.2085Z" fill="#246EE9"/>
</svg>
